<svg width="18" height="16" viewBox="0 0 18 16" fill="none" xmlns="http://www.w3.org/2000/svg">
<path fill-rule="evenodd" clip-rule="evenodd" d="M8.70679 0.293031C8.89426 0.480558 8.99957 0.734866 8.99957 1.00003C8.99957 1.26519 8.89426 1.5195 8.70679 1.70703L3.41379 7.00003H16.9998C17.265 7.00003 17.5194 7.10539 17.7069 7.29292C17.8944 7.48046 17.9998 7.73481 17.9998 8.00003C17.9998 8.26525 17.8944 8.5196 17.7069 8.70714C17.5194 8.89467 17.265 9.00003 16.9998 9.00003H3.41379L8.70679 14.293C8.88894 14.4816 8.98974 14.7342 8.98746 14.9964C8.98518 15.2586 8.88001 15.5094 8.6946 15.6948C8.5092 15.8803 8.25838 15.9854 7.99619 15.9877C7.73399 15.99 7.48139 15.8892 7.29279 15.707L0.292786 8.70703C0.105315 8.5195 0 8.26519 0 8.00003C0 7.73487 0.105315 7.48056 0.292786 7.29303L7.29279 0.293031C7.48031 0.10556 7.73462 0.000244141 7.99979 0.000244141C8.26495 0.000244141 8.51926 0.10556 8.70679 0.293031Z" fill="#4F280C"/>
</svg>
