<svg width="24" height="21" viewBox="0 0 24 21" fill="none" xmlns="http://www.w3.org/2000/svg">
<path fill-rule="evenodd" clip-rule="evenodd" d="M11.3101 0.775994C11.4961 0.598713 11.7432 0.499817 12.0001 0.499817C12.2571 0.499817 12.5042 0.598713 12.6901 0.775994L20.6901 8.39462L23.1901 10.7745C23.3824 10.9575 23.4941 11.2094 23.5007 11.4747C23.5073 11.7401 23.4081 11.9972 23.2251 12.1894C23.0421 12.3817 22.7903 12.4934 22.5249 12.5C22.2595 12.5065 22.0024 12.4074 21.8101 12.2244L21.0001 11.4515V18.9991C21.0001 19.5295 20.7894 20.0382 20.4144 20.4132C20.0393 20.7883 19.5306 20.999 19.0001 20.999H5.00014C4.46971 20.999 3.961 20.7883 3.58592 20.4132C3.21085 20.0382 3.00014 19.5295 3.00014 18.9991V11.4515L2.19014 12.2234C1.99812 12.4064 1.74127 12.5056 1.4761 12.4993C1.21092 12.4929 0.959138 12.3814 0.776138 12.1894C0.593139 11.9974 0.493913 11.7406 0.500289 11.4754C0.506666 11.2103 0.618122 10.9585 0.810138 10.7755L3.31014 8.39462L11.3101 0.774994V0.775994ZM5.00014 9.54756V18.9991H9.00014V13.9993C9.00014 13.2037 9.31621 12.4407 9.87882 11.8781C10.4414 11.3155 11.2045 10.9995 12.0001 10.9995C12.7958 10.9995 13.5589 11.3155 14.1215 11.8781C14.6841 12.4407 15.0001 13.2037 15.0001 13.9993V18.9991H19.0001V9.54756L12.0001 2.87989L5.00014 9.54656V9.54756ZM13.0001 18.9991V13.9993C13.0001 13.7341 12.8948 13.4798 12.7072 13.2923C12.5197 13.1047 12.2654 12.9994 12.0001 12.9994C11.7349 12.9994 11.4806 13.1047 11.293 13.2923C11.1055 13.4798 11.0001 13.7341 11.0001 13.9993V18.9991H13.0001Z" fill="white"/>
</svg>
